<svg xmlns="http://www.w3.org/2000/svg" viewBox="0 0 918 394" width="918" height="394" role="img" aria-label="Reliability diagrams"><rect width="918" height="394" fill="#ffffff"/><text x="60.0" y="30.0" font-size="17" fill="#1f2430" text-anchor="start" font-weight="700" font-family="-apple-system,Segoe UI,Roboto,Helvetica,Arial,sans-serif">Confidence-head reliability: quantization vs. recalibration</text><text x="60.0" y="50.0" font-size="12" fill="#6b7280" text-anchor="start" font-weight="normal" font-family="-apple-system,Segoe UI,Roboto,Helvetica,Arial,sans-serif">Perfectly calibrated = points on the diagonal. Red = raw quantized head, green = after temperature scaling.</text><rect x="60.0" y="66.0" width="240.0" height="240.0" rx="0" fill="#ffffff" fill-opacity="1.0" stroke="#e5e7eb" stroke-width="1"/><line x1="120.0" y1="66.0" x2="120.0" y2="306.0" stroke="#f1f5f9" stroke-width="1"/><line x1="60.0" y1="126.0" x2="300.0" y2="126.0" stroke="#f1f5f9" stroke-width="1"/><line x1="180.0" y1="66.0" x2="180.0" y2="306.0" stroke="#f1f5f9" stroke-width="1"/><line x1="60.0" y1="186.0" x2="300.0" y2="186.0" stroke="#f1f5f9" stroke-width="1"/><line x1="240.0" y1="66.0" x2="240.0" y2="306.0" stroke="#f1f5f9" stroke-width="1"/><line x1="60.0" y1="246.0" x2="300.0" y2="246.0" stroke="#f1f5f9" stroke-width="1"/><line x1="300.0" y1="66.0" x2="300.0" y2="306.0" stroke="#f1f5f9" stroke-width="1"/><line x1="60.0" y1="306.0" x2="300.0" y2="306.0" stroke="#f1f5f9" stroke-width="1"/><line x1="60.0" y1="306.0" x2="300.0" y2="66.0" stroke="#6b7280" stroke-width="1.2" stroke-dasharray="4 3"/><polyline points="156.1,237.4 174.3,184.4 192.2,174.9 210.6,156.8 230.2,135.6 250.2,118.2 270.0,97.7 290.1,77.9" fill="none" stroke="#dc2626" stroke-width="2.2"/><circle cx="156.1" cy="237.4" r="2.6" fill="#dc2626" stroke="none" stroke-width="1.0"/><circle cx="174.3" cy="184.4" r="2.6" fill="#dc2626" stroke="none" stroke-width="1.0"/><circle cx="192.2" cy="174.9" r="2.6" fill="#dc2626" stroke="none" stroke-width="1.0"/><circle cx="210.6" cy="156.8" r="2.6" fill="#dc2626" stroke="none" stroke-width="1.0"/><circle cx="230.2" cy="135.6" r="2.6" fill="#dc2626" stroke="none" stroke-width="1.0"/><circle cx="250.2" cy="118.2" r="2.6" fill="#dc2626" stroke="none" stroke-width="1.0"/><circle cx="270.0" cy="97.7" r="2.6" fill="#dc2626" stroke="none" stroke-width="1.0"/><circle cx="290.1" cy="77.9" r="2.6" fill="#dc2626" stroke="none" stroke-width="1.0"/><polyline points="155.4,210.0 174.3,185.2 192.3,175.0 210.5,156.0 230.1,134.8 250.3,116.4 269.9,96.1 290.0,77.1" fill="none" stroke="#059669" stroke-width="2.2"/><circle cx="155.4" cy="210.0" r="2.6" fill="#059669" stroke="none" stroke-width="1.0"/><circle cx="174.3" cy="185.2" r="2.6" fill="#059669" stroke="none" stroke-width="1.0"/><circle cx="192.3" cy="175.0" r="2.6" fill="#059669" stroke="none" stroke-width="1.0"/><circle cx="210.5" cy="156.0" r="2.6" fill="#059669" stroke="none" stroke-width="1.0"/><circle cx="230.1" cy="134.8" r="2.6" fill="#059669" stroke="none" stroke-width="1.0"/><circle cx="250.3" cy="116.4" r="2.6" fill="#059669" stroke="none" stroke-width="1.0"/><circle cx="269.9" cy="96.1" r="2.6" fill="#059669" stroke="none" stroke-width="1.0"/><circle cx="290.0" cy="77.1" r="2.6" fill="#059669" stroke="none" stroke-width="1.0"/><text x="180.0" y="54.0" font-size="14" fill="#1f2430" text-anchor="middle" font-weight="700" font-family="-apple-system,Segoe UI,Roboto,Helvetica,Arial,sans-serif">FP16</text><text x="68.0" y="84.0" font-size="12" fill="#dc2626" text-anchor="start" font-weight="600" font-family="-apple-system,Segoe UI,Roboto,Helvetica,Arial,sans-serif">ECE 0.006</text><text x="68.0" y="102.0" font-size="12" fill="#059669" text-anchor="start" font-weight="600" font-family="-apple-system,Segoe UI,Roboto,Helvetica,Arial,sans-serif">→ 0.003</text><text x="292.0" y="296.0" font-size="11" fill="#6b7280" text-anchor="end" font-weight="normal" font-family="-apple-system,Segoe UI,Roboto,Helvetica,Arial,sans-serif">T=1.03</text><text x="180.0" y="326.0" font-size="11" fill="#6b7280" text-anchor="middle" font-weight="normal" font-family="-apple-system,Segoe UI,Roboto,Helvetica,Arial,sans-serif">predicted confidence</text><rect x="346.0" y="66.0" width="240.0" height="240.0" rx="0" fill="#ffffff" fill-opacity="1.0" stroke="#e5e7eb" stroke-width="1"/><line x1="406.0" y1="66.0" x2="406.0" y2="306.0" stroke="#f1f5f9" stroke-width="1"/><line x1="346.0" y1="126.0" x2="586.0" y2="126.0" stroke="#f1f5f9" stroke-width="1"/><line x1="466.0" y1="66.0" x2="466.0" y2="306.0" stroke="#f1f5f9" stroke-width="1"/><line x1="346.0" y1="186.0" x2="586.0" y2="186.0" stroke="#f1f5f9" stroke-width="1"/><line x1="526.0" y1="66.0" x2="526.0" y2="306.0" stroke="#f1f5f9" stroke-width="1"/><line x1="346.0" y1="246.0" x2="586.0" y2="246.0" stroke="#f1f5f9" stroke-width="1"/><line x1="586.0" y1="66.0" x2="586.0" y2="306.0" stroke="#f1f5f9" stroke-width="1"/><line x1="346.0" y1="306.0" x2="586.0" y2="306.0" stroke="#f1f5f9" stroke-width="1"/><line x1="346.0" y1="306.0" x2="586.0" y2="66.0" stroke="#6b7280" stroke-width="1.2" stroke-dasharray="4 3"/><polyline points="439.2,210.0 458.4,198.5 478.1,177.5 496.9,174.4 516.5,159.7 536.3,140.9 556.8,126.9 577.7,95.1" fill="none" stroke="#dc2626" stroke-width="2.2"/><circle cx="439.2" cy="210.0" r="2.6" fill="#dc2626" stroke="none" stroke-width="1.0"/><circle cx="458.4" cy="198.5" r="2.6" fill="#dc2626" stroke="none" stroke-width="1.0"/><circle cx="478.1" cy="177.5" r="2.6" fill="#dc2626" stroke="none" stroke-width="1.0"/><circle cx="496.9" cy="174.4" r="2.6" fill="#dc2626" stroke="none" stroke-width="1.0"/><circle cx="516.5" cy="159.7" r="2.6" fill="#dc2626" stroke="none" stroke-width="1.0"/><circle cx="536.3" cy="140.9" r="2.6" fill="#dc2626" stroke="none" stroke-width="1.0"/><circle cx="556.8" cy="126.9" r="2.6" fill="#dc2626" stroke="none" stroke-width="1.0"/><circle cx="577.7" cy="95.1" r="2.6" fill="#dc2626" stroke="none" stroke-width="1.0"/><polyline points="443.9,306.0 460.4,199.6 478.4,175.4 496.5,157.4 516.0,135.2 536.1,116.2 555.3,95.5 574.8,76.6" fill="none" stroke="#059669" stroke-width="2.2"/><circle cx="443.9" cy="306.0" r="2.6" fill="#059669" stroke="none" stroke-width="1.0"/><circle cx="460.4" cy="199.6" r="2.6" fill="#059669" stroke="none" stroke-width="1.0"/><circle cx="478.4" cy="175.4" r="2.6" fill="#059669" stroke="none" stroke-width="1.0"/><circle cx="496.5" cy="157.4" r="2.6" fill="#059669" stroke="none" stroke-width="1.0"/><circle cx="516.0" cy="135.2" r="2.6" fill="#059669" stroke="none" stroke-width="1.0"/><circle cx="536.1" cy="116.2" r="2.6" fill="#059669" stroke="none" stroke-width="1.0"/><circle cx="555.3" cy="95.5" r="2.6" fill="#059669" stroke="none" stroke-width="1.0"/><circle cx="574.8" cy="76.6" r="2.6" fill="#059669" stroke="none" stroke-width="1.0"/><text x="466.0" y="54.0" font-size="14" fill="#1f2430" text-anchor="middle" font-weight="700" font-family="-apple-system,Segoe UI,Roboto,Helvetica,Arial,sans-serif">INT8</text><text x="354.0" y="84.0" font-size="12" fill="#dc2626" text-anchor="start" font-weight="600" font-family="-apple-system,Segoe UI,Roboto,Helvetica,Arial,sans-serif">ECE 0.097</text><text x="354.0" y="102.0" font-size="12" fill="#059669" text-anchor="start" font-weight="600" font-family="-apple-system,Segoe UI,Roboto,Helvetica,Arial,sans-serif">→ 0.006</text><text x="578.0" y="296.0" font-size="11" fill="#6b7280" text-anchor="end" font-weight="normal" font-family="-apple-system,Segoe UI,Roboto,Helvetica,Arial,sans-serif">T=1.81</text><text x="466.0" y="326.0" font-size="11" fill="#6b7280" text-anchor="middle" font-weight="normal" font-family="-apple-system,Segoe UI,Roboto,Helvetica,Arial,sans-serif">predicted confidence</text><rect x="632.0" y="66.0" width="240.0" height="240.0" rx="0" fill="#ffffff" fill-opacity="1.0" stroke="#e5e7eb" stroke-width="1"/><line x1="692.0" y1="66.0" x2="692.0" y2="306.0" stroke="#f1f5f9" stroke-width="1"/><line x1="632.0" y1="126.0" x2="872.0" y2="126.0" stroke="#f1f5f9" stroke-width="1"/><line x1="752.0" y1="66.0" x2="752.0" y2="306.0" stroke="#f1f5f9" stroke-width="1"/><line x1="632.0" y1="186.0" x2="872.0" y2="186.0" stroke="#f1f5f9" stroke-width="1"/><line x1="812.0" y1="66.0" x2="812.0" y2="306.0" stroke="#f1f5f9" stroke-width="1"/><line x1="632.0" y1="246.0" x2="872.0" y2="246.0" stroke="#f1f5f9" stroke-width="1"/><line x1="872.0" y1="66.0" x2="872.0" y2="306.0" stroke="#f1f5f9" stroke-width="1"/><line x1="632.0" y1="306.0" x2="872.0" y2="306.0" stroke="#f1f5f9" stroke-width="1"/><line x1="632.0" y1="306.0" x2="872.0" y2="66.0" stroke="#6b7280" stroke-width="1.2" stroke-dasharray="4 3"/><polyline points="703.5,180.3 724.9,196.3 743.6,209.6 763.3,186.0 782.8,179.9 802.8,167.2 822.9,163.8 843.0,147.3 865.3,111.1" fill="none" stroke="#dc2626" stroke-width="2.2"/><circle cx="703.5" cy="180.3" r="2.6" fill="#dc2626" stroke="none" stroke-width="1.0"/><circle cx="724.9" cy="196.3" r="2.6" fill="#dc2626" stroke="none" stroke-width="1.0"/><circle cx="743.6" cy="209.6" r="2.6" fill="#dc2626" stroke="none" stroke-width="1.0"/><circle cx="763.3" cy="186.0" r="2.6" fill="#dc2626" stroke="none" stroke-width="1.0"/><circle cx="782.8" cy="179.9" r="2.6" fill="#dc2626" stroke="none" stroke-width="1.0"/><circle cx="802.8" cy="167.2" r="2.6" fill="#dc2626" stroke="none" stroke-width="1.0"/><circle cx="822.9" cy="163.8" r="2.6" fill="#dc2626" stroke="none" stroke-width="1.0"/><circle cx="843.0" cy="147.3" r="2.6" fill="#dc2626" stroke="none" stroke-width="1.0"/><circle cx="865.3" cy="111.1" r="2.6" fill="#dc2626" stroke="none" stroke-width="1.0"/><polyline points="730.4,168.9 746.7,205.5 764.0,176.2 782.4,162.1 802.0,138.0 821.8,116.3 840.4,96.0 859.0,76.4" fill="none" stroke="#059669" stroke-width="2.2"/><circle cx="730.4" cy="168.9" r="2.6" fill="#059669" stroke="none" stroke-width="1.0"/><circle cx="746.7" cy="205.5" r="2.6" fill="#059669" stroke="none" stroke-width="1.0"/><circle cx="764.0" cy="176.2" r="2.6" fill="#059669" stroke="none" stroke-width="1.0"/><circle cx="782.4" cy="162.1" r="2.6" fill="#059669" stroke="none" stroke-width="1.0"/><circle cx="802.0" cy="138.0" r="2.6" fill="#059669" stroke="none" stroke-width="1.0"/><circle cx="821.8" cy="116.3" r="2.6" fill="#059669" stroke="none" stroke-width="1.0"/><circle cx="840.4" cy="96.0" r="2.6" fill="#059669" stroke="none" stroke-width="1.0"/><circle cx="859.0" cy="76.4" r="2.6" fill="#059669" stroke="none" stroke-width="1.0"/><text x="752.0" y="54.0" font-size="14" fill="#1f2430" text-anchor="middle" font-weight="700" font-family="-apple-system,Segoe UI,Roboto,Helvetica,Arial,sans-serif">NF4</text><text x="640.0" y="84.0" font-size="12" fill="#dc2626" text-anchor="start" font-weight="600" font-family="-apple-system,Segoe UI,Roboto,Helvetica,Arial,sans-serif">ECE 0.166</text><text x="640.0" y="102.0" font-size="12" fill="#059669" text-anchor="start" font-weight="600" font-family="-apple-system,Segoe UI,Roboto,Helvetica,Arial,sans-serif">→ 0.014</text><text x="864.0" y="296.0" font-size="11" fill="#6b7280" text-anchor="end" font-weight="normal" font-family="-apple-system,Segoe UI,Roboto,Helvetica,Arial,sans-serif">T=2.70</text><text x="752.0" y="326.0" font-size="11" fill="#6b7280" text-anchor="middle" font-weight="normal" font-family="-apple-system,Segoe UI,Roboto,Helvetica,Arial,sans-serif">predicted confidence</text><text x="60.0" y="378.0" font-size="11" fill="#6b7280" text-anchor="start" font-weight="normal" font-family="-apple-system,Segoe UI,Roboto,Helvetica,Arial,sans-serif">observed acceptance rate  (y)   ·   predicted confidence  (x)   ·   n = 30,000 held-out positions per precision</text></svg>