<svg xmlns="http://www.w3.org/2000/svg" viewBox="0 0 918 394" width="918" height="394" role="img" aria-label="Reliability diagrams"><rect width="918" height="394" fill="#ffffff"/><text x="60.0" y="30.0" font-size="17" fill="#1f2430" text-anchor="start" font-weight="700" font-family="-apple-system,Segoe UI,Roboto,Helvetica,Arial,sans-serif">Confidence-head reliability: quantization vs. recalibration</text><text x="60.0" y="50.0" font-size="12" fill="#6b7280" text-anchor="start" font-weight="normal" font-family="-apple-system,Segoe UI,Roboto,Helvetica,Arial,sans-serif">Perfectly calibrated = points on the diagonal. Red = raw quantized head, green = after temperature scaling.</text><rect x="60.0" y="66.0" width="240.0" height="240.0" rx="0" fill="#ffffff" fill-opacity="1.0" stroke="#e5e7eb" stroke-width="1"/><line x1="120.0" y1="66.0" x2="120.0" y2="306.0" stroke="#f1f5f9" stroke-width="1"/><line x1="60.0" y1="126.0" x2="300.0" y2="126.0" stroke="#f1f5f9" stroke-width="1"/><line x1="180.0" y1="66.0" x2="180.0" y2="306.0" stroke="#f1f5f9" stroke-width="1"/><line x1="60.0" y1="186.0" x2="300.0" y2="186.0" stroke="#f1f5f9" stroke-width="1"/><line x1="240.0" y1="66.0" x2="240.0" y2="306.0" stroke="#f1f5f9" stroke-width="1"/><line x1="60.0" y1="246.0" x2="300.0" y2="246.0" stroke="#f1f5f9" stroke-width="1"/><line x1="300.0" y1="66.0" x2="300.0" y2="306.0" stroke="#f1f5f9" stroke-width="1"/><line x1="60.0" y1="306.0" x2="300.0" y2="306.0" stroke="#f1f5f9" stroke-width="1"/><line x1="60.0" y1="306.0" x2="300.0" y2="66.0" stroke="#6b7280" stroke-width="1.2" stroke-dasharray="4 3"/><polyline points="192.4,174.2 209.9,158.1 221.8,143.8 233.1,132.5 243.9,125.9 254.2,112.2 263.8,105.4 273.0,94.5 282.7,86.1 294.6,72.0" fill="none" stroke="#dc2626" stroke-width="2.2"/><circle cx="192.4" cy="174.2" r="2.6" fill="#dc2626" stroke="none" stroke-width="1.0"/><circle cx="209.9" cy="158.1" r="2.6" fill="#dc2626" stroke="none" stroke-width="1.0"/><circle cx="221.8" cy="143.8" r="2.6" fill="#dc2626" stroke="none" stroke-width="1.0"/><circle cx="233.1" cy="132.5" r="2.6" fill="#dc2626" stroke="none" stroke-width="1.0"/><circle cx="243.9" cy="125.9" r="2.6" fill="#dc2626" stroke="none" stroke-width="1.0"/><circle cx="254.2" cy="112.2" r="2.6" fill="#dc2626" stroke="none" stroke-width="1.0"/><circle cx="263.8" cy="105.4" r="2.6" fill="#dc2626" stroke="none" stroke-width="1.0"/><circle cx="273.0" cy="94.5" r="2.6" fill="#dc2626" stroke="none" stroke-width="1.0"/><circle cx="282.7" cy="86.1" r="2.6" fill="#dc2626" stroke="none" stroke-width="1.0"/><circle cx="294.6" cy="72.0" r="2.6" fill="#dc2626" stroke="none" stroke-width="1.0"/><polyline points="192.0,174.2 209.1,158.1 220.7,143.8 231.8,132.5 242.4,125.9 252.6,112.2 262.2,105.4 271.6,94.5 281.4,86.1 294.1,72.0" fill="none" stroke="#059669" stroke-width="2.2"/><circle cx="192.0" cy="174.2" r="2.6" fill="#059669" stroke="none" stroke-width="1.0"/><circle cx="209.1" cy="158.1" r="2.6" fill="#059669" stroke="none" stroke-width="1.0"/><circle cx="220.7" cy="143.8" r="2.6" fill="#059669" stroke="none" stroke-width="1.0"/><circle cx="231.8" cy="132.5" r="2.6" fill="#059669" stroke="none" stroke-width="1.0"/><circle cx="242.4" cy="125.9" r="2.6" fill="#059669" stroke="none" stroke-width="1.0"/><circle cx="252.6" cy="112.2" r="2.6" fill="#059669" stroke="none" stroke-width="1.0"/><circle cx="262.2" cy="105.4" r="2.6" fill="#059669" stroke="none" stroke-width="1.0"/><circle cx="271.6" cy="94.5" r="2.6" fill="#059669" stroke="none" stroke-width="1.0"/><circle cx="281.4" cy="86.1" r="2.6" fill="#059669" stroke="none" stroke-width="1.0"/><circle cx="294.1" cy="72.0" r="2.6" fill="#059669" stroke="none" stroke-width="1.0"/><text x="180.0" y="54.0" font-size="14" fill="#1f2430" text-anchor="middle" font-weight="700" font-family="-apple-system,Segoe UI,Roboto,Helvetica,Arial,sans-serif">FP16</text><text x="68.0" y="84.0" font-size="12" fill="#dc2626" text-anchor="start" font-weight="600" font-family="-apple-system,Segoe UI,Roboto,Helvetica,Arial,sans-serif">ECE 0.006</text><text x="68.0" y="102.0" font-size="12" fill="#059669" text-anchor="start" font-weight="600" font-family="-apple-system,Segoe UI,Roboto,Helvetica,Arial,sans-serif">→ 0.003</text><text x="292.0" y="296.0" font-size="11" fill="#6b7280" text-anchor="end" font-weight="normal" font-family="-apple-system,Segoe UI,Roboto,Helvetica,Arial,sans-serif">T=1.03</text><text x="180.0" y="326.0" font-size="11" fill="#6b7280" text-anchor="middle" font-weight="normal" font-family="-apple-system,Segoe UI,Roboto,Helvetica,Arial,sans-serif">predicted confidence</text><rect x="346.0" y="66.0" width="240.0" height="240.0" rx="0" fill="#ffffff" fill-opacity="1.0" stroke="#e5e7eb" stroke-width="1"/><line x1="406.0" y1="66.0" x2="406.0" y2="306.0" stroke="#f1f5f9" stroke-width="1"/><line x1="346.0" y1="126.0" x2="586.0" y2="126.0" stroke="#f1f5f9" stroke-width="1"/><line x1="466.0" y1="66.0" x2="466.0" y2="306.0" stroke="#f1f5f9" stroke-width="1"/><line x1="346.0" y1="186.0" x2="586.0" y2="186.0" stroke="#f1f5f9" stroke-width="1"/><line x1="526.0" y1="66.0" x2="526.0" y2="306.0" stroke="#f1f5f9" stroke-width="1"/><line x1="346.0" y1="246.0" x2="586.0" y2="246.0" stroke="#f1f5f9" stroke-width="1"/><line x1="586.0" y1="66.0" x2="586.0" y2="306.0" stroke="#f1f5f9" stroke-width="1"/><line x1="346.0" y1="306.0" x2="586.0" y2="306.0" stroke="#f1f5f9" stroke-width="1"/><line x1="346.0" y1="306.0" x2="586.0" y2="66.0" stroke="#6b7280" stroke-width="1.2" stroke-dasharray="4 3"/><polyline points="486.8,178.4 513.6,160.1 530.0,147.0 543.5,137.6 555.0,127.2 564.1,120.3 571.2,109.2 576.6,101.0 581.0,89.0 584.8,76.3" fill="none" stroke="#dc2626" stroke-width="2.2"/><circle cx="486.8" cy="178.4" r="2.6" fill="#dc2626" stroke="none" stroke-width="1.0"/><circle cx="513.6" cy="160.1" r="2.6" fill="#dc2626" stroke="none" stroke-width="1.0"/><circle cx="530.0" cy="147.0" r="2.6" fill="#dc2626" stroke="none" stroke-width="1.0"/><circle cx="543.5" cy="137.6" r="2.6" fill="#dc2626" stroke="none" stroke-width="1.0"/><circle cx="555.0" cy="127.2" r="2.6" fill="#dc2626" stroke="none" stroke-width="1.0"/><circle cx="564.1" cy="120.3" r="2.6" fill="#dc2626" stroke="none" stroke-width="1.0"/><circle cx="571.2" cy="109.2" r="2.6" fill="#dc2626" stroke="none" stroke-width="1.0"/><circle cx="576.6" cy="101.0" r="2.6" fill="#dc2626" stroke="none" stroke-width="1.0"/><circle cx="581.0" cy="89.0" r="2.6" fill="#dc2626" stroke="none" stroke-width="1.0"/><circle cx="584.8" cy="76.3" r="2.6" fill="#dc2626" stroke="none" stroke-width="1.0"/><polyline points="477.7,178.4 493.3,160.1 504.1,147.0 514.1,137.6 524.0,127.2 533.3,120.3 542.4,109.2 550.9,101.0 560.6,89.0 575.1,76.3" fill="none" stroke="#059669" stroke-width="2.2"/><circle cx="477.7" cy="178.4" r="2.6" fill="#059669" stroke="none" stroke-width="1.0"/><circle cx="493.3" cy="160.1" r="2.6" fill="#059669" stroke="none" stroke-width="1.0"/><circle cx="504.1" cy="147.0" r="2.6" fill="#059669" stroke="none" stroke-width="1.0"/><circle cx="514.1" cy="137.6" r="2.6" fill="#059669" stroke="none" stroke-width="1.0"/><circle cx="524.0" cy="127.2" r="2.6" fill="#059669" stroke="none" stroke-width="1.0"/><circle cx="533.3" cy="120.3" r="2.6" fill="#059669" stroke="none" stroke-width="1.0"/><circle cx="542.4" cy="109.2" r="2.6" fill="#059669" stroke="none" stroke-width="1.0"/><circle cx="550.9" cy="101.0" r="2.6" fill="#059669" stroke="none" stroke-width="1.0"/><circle cx="560.6" cy="89.0" r="2.6" fill="#059669" stroke="none" stroke-width="1.0"/><circle cx="575.1" cy="76.3" r="2.6" fill="#059669" stroke="none" stroke-width="1.0"/><text x="466.0" y="54.0" font-size="14" fill="#1f2430" text-anchor="middle" font-weight="700" font-family="-apple-system,Segoe UI,Roboto,Helvetica,Arial,sans-serif">INT8</text><text x="354.0" y="84.0" font-size="12" fill="#dc2626" text-anchor="start" font-weight="600" font-family="-apple-system,Segoe UI,Roboto,Helvetica,Arial,sans-serif">ECE 0.097</text><text x="354.0" y="102.0" font-size="12" fill="#059669" text-anchor="start" font-weight="600" font-family="-apple-system,Segoe UI,Roboto,Helvetica,Arial,sans-serif">→ 0.006</text><text x="578.0" y="296.0" font-size="11" fill="#6b7280" text-anchor="end" font-weight="normal" font-family="-apple-system,Segoe UI,Roboto,Helvetica,Arial,sans-serif">T=1.81</text><text x="466.0" y="326.0" font-size="11" fill="#6b7280" text-anchor="middle" font-weight="normal" font-family="-apple-system,Segoe UI,Roboto,Helvetica,Arial,sans-serif">predicted confidence</text><rect x="632.0" y="66.0" width="240.0" height="240.0" rx="0" fill="#ffffff" fill-opacity="1.0" stroke="#e5e7eb" stroke-width="1"/><line x1="692.0" y1="66.0" x2="692.0" y2="306.0" stroke="#f1f5f9" stroke-width="1"/><line x1="632.0" y1="126.0" x2="872.0" y2="126.0" stroke="#f1f5f9" stroke-width="1"/><line x1="752.0" y1="66.0" x2="752.0" y2="306.0" stroke="#f1f5f9" stroke-width="1"/><line x1="632.0" y1="186.0" x2="872.0" y2="186.0" stroke="#f1f5f9" stroke-width="1"/><line x1="812.0" y1="66.0" x2="812.0" y2="306.0" stroke="#f1f5f9" stroke-width="1"/><line x1="632.0" y1="246.0" x2="872.0" y2="246.0" stroke="#f1f5f9" stroke-width="1"/><line x1="872.0" y1="66.0" x2="872.0" y2="306.0" stroke="#f1f5f9" stroke-width="1"/><line x1="632.0" y1="306.0" x2="872.0" y2="306.0" stroke="#f1f5f9" stroke-width="1"/><line x1="632.0" y1="306.0" x2="872.0" y2="66.0" stroke="#6b7280" stroke-width="1.2" stroke-dasharray="4 3"/><polyline points="771.9,183.3 808.0,167.8 827.6,162.3 841.4,148.8 851.4,138.3 858.8,130.2 863.9,120.5 867.4,107.6 869.8,102.1 871.4,83.4" fill="none" stroke="#dc2626" stroke-width="2.2"/><circle cx="771.9" cy="183.3" r="2.6" fill="#dc2626" stroke="none" stroke-width="1.0"/><circle cx="808.0" cy="167.8" r="2.6" fill="#dc2626" stroke="none" stroke-width="1.0"/><circle cx="827.6" cy="162.3" r="2.6" fill="#dc2626" stroke="none" stroke-width="1.0"/><circle cx="841.4" cy="148.8" r="2.6" fill="#dc2626" stroke="none" stroke-width="1.0"/><circle cx="851.4" cy="138.3" r="2.6" fill="#dc2626" stroke="none" stroke-width="1.0"/><circle cx="858.8" cy="130.2" r="2.6" fill="#dc2626" stroke="none" stroke-width="1.0"/><circle cx="863.9" cy="120.5" r="2.6" fill="#dc2626" stroke="none" stroke-width="1.0"/><circle cx="867.4" cy="107.6" r="2.6" fill="#dc2626" stroke="none" stroke-width="1.0"/><circle cx="869.8" cy="102.1" r="2.6" fill="#dc2626" stroke="none" stroke-width="1.0"/><circle cx="871.4" cy="83.4" r="2.6" fill="#dc2626" stroke="none" stroke-width="1.0"/><polyline points="759.5,183.3 774.3,167.8 784.3,162.3 793.1,148.8 801.6,138.3 810.0,130.2 818.4,120.5 826.9,107.6 836.3,102.1 851.0,83.4" fill="none" stroke="#059669" stroke-width="2.2"/><circle cx="759.5" cy="183.3" r="2.6" fill="#059669" stroke="none" stroke-width="1.0"/><circle cx="774.3" cy="167.8" r="2.6" fill="#059669" stroke="none" stroke-width="1.0"/><circle cx="784.3" cy="162.3" r="2.6" fill="#059669" stroke="none" stroke-width="1.0"/><circle cx="793.1" cy="148.8" r="2.6" fill="#059669" stroke="none" stroke-width="1.0"/><circle cx="801.6" cy="138.3" r="2.6" fill="#059669" stroke="none" stroke-width="1.0"/><circle cx="810.0" cy="130.2" r="2.6" fill="#059669" stroke="none" stroke-width="1.0"/><circle cx="818.4" cy="120.5" r="2.6" fill="#059669" stroke="none" stroke-width="1.0"/><circle cx="826.9" cy="107.6" r="2.6" fill="#059669" stroke="none" stroke-width="1.0"/><circle cx="836.3" cy="102.1" r="2.6" fill="#059669" stroke="none" stroke-width="1.0"/><circle cx="851.0" cy="83.4" r="2.6" fill="#059669" stroke="none" stroke-width="1.0"/><text x="752.0" y="54.0" font-size="14" fill="#1f2430" text-anchor="middle" font-weight="700" font-family="-apple-system,Segoe UI,Roboto,Helvetica,Arial,sans-serif">NF4</text><text x="640.0" y="84.0" font-size="12" fill="#dc2626" text-anchor="start" font-weight="600" font-family="-apple-system,Segoe UI,Roboto,Helvetica,Arial,sans-serif">ECE 0.166</text><text x="640.0" y="102.0" font-size="12" fill="#059669" text-anchor="start" font-weight="600" font-family="-apple-system,Segoe UI,Roboto,Helvetica,Arial,sans-serif">→ 0.014</text><text x="864.0" y="296.0" font-size="11" fill="#6b7280" text-anchor="end" font-weight="normal" font-family="-apple-system,Segoe UI,Roboto,Helvetica,Arial,sans-serif">T=2.70</text><text x="752.0" y="326.0" font-size="11" fill="#6b7280" text-anchor="middle" font-weight="normal" font-family="-apple-system,Segoe UI,Roboto,Helvetica,Arial,sans-serif">predicted confidence</text><text x="60.0" y="378.0" font-size="11" fill="#6b7280" text-anchor="start" font-weight="normal" font-family="-apple-system,Segoe UI,Roboto,Helvetica,Arial,sans-serif">observed acceptance rate  (y)   ·   predicted confidence  (x)   ·   n = 30,000 held-out positions per precision</text></svg>